<?xml version="1.0" encoding="UTF-8"?>
<!DOCTYPE svg PUBLIC "-//W3C//DTD SVG 1.1//EN" "http://www.w3.org/Graphics/SVG/1.1/DTD/svg11.dtd">
<!-- Creator: CorelDRAW -->
<svg xmlns="http://www.w3.org/2000/svg" xml:space="preserve" width="7.6198mm" height="9.7806mm" version="1.1" style="shape-rendering:geometricPrecision; text-rendering:geometricPrecision; image-rendering:optimizeQuality; fill-rule:evenodd; clip-rule:evenodd"
viewBox="0 0 761.98 978.06"
 xmlns:xlink="http://www.w3.org/1999/xlink"
 xmlns:xodm="http://www.corel.com/coreldraw/odm/2003">
 <defs>
  <style type="text/css">
   <![CDATA[
    .fil0 {fill:#FEFEFE;fill-rule:nonzero}
   ]]>
  </style>
 </defs>
 <g id="Layer_x0020_1">
  <metadata id="CorelCorpID_0Corel-Layer"/>
  <path class="fil0" d="M108.7 326.93l0 274.61c4.04,52.5 8.08,121.16 12.12,169.62 4.03,56.54 52.5,100.96 109.03,100.96l298.85 0c56.54,0 105,-44.42 109.04,-100.96 4.03,-48.46 8.07,-117.12 12.11,-169.62 4.04,-60.58 0,-185.77 0,-274.61l-541.15 0z"/>
  <path class="fil0" d="M661.97 205.77l-100.96 0 -32.31 -60.58c-20.19,-36.34 -56.54,-60.58 -96.92,-60.58l-96.93 0c-40.38,0 -80.76,24.24 -96.92,60.58l-40.38 60.58 -100.96 0c-16.16,0 -32.31,16.15 -32.31,32.31 0,16.15 16.15,32.31 32.31,32.31l565.38 0c16.15,0 32.31,-12.12 32.31,-32.31 0,-20.19 -16.16,-32.31 -32.31,-32.31zm-395.77 0l20.19 -32.31c8.08,-16.15 24.23,-28.27 44.42,-28.27l96.93 0c20.19,0 36.34,8.08 44.42,28.27l20.19 32.31 -226.15 0z"/>
 </g>
</svg>
